<svg version="1.1"
   xmlns="http://www.w3.org/2000/svg" xmlns:xlink="http://www.w3.org/1999/xlink" xmlns:a="http://ns.adobe.com/AdobeSVGViewerExtensions/3.0/"
   x="0px" y="0px" width="19px" height="17.5px" viewBox="0 0 37.5 34.6" style="enable-background:new 0 0 37.5 34.6;"
   xml:space="preserve">
<style type="text/css">
  .st0{fill:#EDAF97;}
</style>
<defs>
</defs>
<g>
  <g>
    <g>
      <path class="st0" d="M7.2,27.8c-0.2,0-0.5-0.1-0.7-0.2C6.3,27.5,0,24.3,0,16c0-3,1.1-5.5,3.2-7.5C9.1,3.2,21,4.3,21.5,4.3
        c0.8,0.1,1.4,0.8,1.3,1.6c-0.1,0.8-0.8,1.4-1.6,1.3c-0.1,0-11.1-1-16,3.4C3.7,12.1,3,13.8,3,16c0,6.5,4.8,9,4.9,9
        c0.7,0.4,1,1.3,0.7,2C8.3,27.5,7.7,27.8,7.2,27.8z"/>
    </g>
    <g>
      <polygon class="st0" points="13.6,10.6 13.6,1.5 21.4,5.9 			"/>
      <path class="st0" d="M13.6,12.1c-0.2,0-0.5-0.1-0.7-0.2c-0.5-0.3-0.8-0.8-0.8-1.3l0-9.2c0-0.5,0.3-1,0.7-1.3c0.5-0.3,1-0.3,1.5,0
        l7.8,4.4c0.5,0.3,0.7,0.7,0.8,1.3c0,0.5-0.3,1-0.7,1.3l-7.8,4.8C14.1,12.1,13.8,12.1,13.6,12.1z M15.1,4l0,4l3.4-2.1L15.1,4z"/>
    </g>
    <g>
      <path class="st0" d="M19.1,30.4c-1.7,0-2.9-0.1-3.1-0.1c-0.8-0.1-1.4-0.8-1.3-1.6c0.1-0.8,0.8-1.4,1.6-1.3c0.1,0,11.1,1,16-3.4
        c1.5-1.4,2.2-3.1,2.2-5.2c0-6.5-4.8-9-4.9-9c-0.7-0.4-1-1.3-0.7-2c0.4-0.7,1.3-1,2-0.7c0.3,0.1,6.5,3.4,6.5,11.7
        c0,3-1.1,5.5-3.2,7.5C30.2,29.8,23.1,30.4,19.1,30.4z"/>
    </g>
    <g>
      <polygon class="st0" points="23.9,24 23.9,33.1 16.1,28.7 			"/>
      <path class="st0" d="M23.9,34.6c-0.3,0-0.5-0.1-0.7-0.2L15.4,30c-0.5-0.3-0.7-0.7-0.8-1.3c0-0.5,0.3-1,0.7-1.3l7.8-4.8
        c0.5-0.3,1-0.3,1.5,0c0.5,0.3,0.8,0.8,0.8,1.3l0,9.2c0,0.5-0.3,1-0.7,1.3C24.5,34.5,24.2,34.6,23.9,34.6z M19.1,28.7l3.4,1.9l0-4
        L19.1,28.7z"/>
    </g>
  </g>
</g>
</svg>
