<svg version="1.1"
   xmlns="http://www.w3.org/2000/svg" xmlns:xlink="http://www.w3.org/1999/xlink" xmlns:a="http://ns.adobe.com/AdobeSVGViewerExtensions/3.0/"
   x="0px" y="0px" width="14px" height="18px" viewBox="0 0 28.2 36.7" style="enable-background:new 0 0 28.2 36.7;"
   xml:space="preserve">
<style type="text/css">
  .st0{fill:#EDAF97;}
</style>
<defs>
</defs>
<g>
  <g>
    <g>
      <path class="st0" d="M26.7,36.7H1.5C0.7,36.7,0,36,0,35.1V12.5C0,11.6,0.7,11,1.5,11h25.2c0.8,0,1.5,0.7,1.5,1.5v22.6
        C28.2,36,27.5,36.7,26.7,36.7z M3.1,33.6h22.1V14H3.1V33.6z"/>
    </g>
  </g>
  <g>
    <g>
      <rect x="12.5" y="12.5" class="st0" width="3.1" height="22.6"/>
    </g>
  </g>
  <g>
    <g>
      <rect x="2.7" y="22.3" class="st0" width="22.6" height="3.1"/>
    </g>
  </g>
  <g>
    <g>
      <path class="st0" d="M12.3,14c-0.6,0-1.2-0.4-1.4-1c-0.3-0.8,0.1-1.7,0.9-2c0.7-0.3,1.4-0.6,2.2-1c-0.1,0-0.2,0-0.2-0.1
        c-0.8-0.4-1.1-1.3-0.8-2c2.1-4.6,4.4-7.2,6.9-7.8c1.4-0.4,2.7,0.1,3.3,0.5c0.1,0.1,0.2,0.2,0.3,0.3c0.9,1.3,1.1,2.7,0.7,4.1
        c-1.4,4.8-10.2,8.4-11.2,8.8C12.7,14,12.5,14,12.3,14z M20.9,3.1c-0.1,0-0.3,0-0.5,0.1c-0.7,0.2-2.5,1.2-4.7,6
        c2.5-1.4,4.9-3.2,5.4-4.8c0.1-0.4,0.1-0.8-0.1-1.2C21,3.1,21,3.1,20.9,3.1z"/>
    </g>
  </g>
  <g>
    <g>
      <path class="st0" d="M16.2,14c-0.2,0-0.4,0-0.6-0.1c-1-0.4-9.8-4-11.2-8.8C4,3.7,4.3,2.3,5.1,1c0.1-0.1,0.2-0.2,0.3-0.3
        c0.6-0.5,1.8-0.9,3.3-0.5c2.5,0.6,4.8,3.3,6.9,7.8c0.4,0.8,0,1.7-0.8,2c-0.1,0-0.2,0.1-0.2,0.1c0.8,0.4,1.5,0.7,2.2,1
        c0.8,0.3,1.2,1.2,0.9,2C17.4,13.6,16.8,14,16.2,14z M7.5,3.1C7.3,3.5,7.2,3.8,7.4,4.3c0.5,1.6,2.9,3.4,5.4,4.8
        c-2.2-4.8-4-5.8-4.7-6C7.8,3,7.6,3,7.5,3.1z"/>
    </g>
  </g>
</g>
</svg>
