<?xml version="1.0" encoding="UTF-8" standalone="no"?>
<svg version="1.1"
  xmlns="http://www.w3.org/2000/svg" xmlns:xlink="http://www.w3.org/1999/xlink" xmlns:a="http://ns.adobe.com/AdobeSVGViewerExtensions/3.0/"
  x="0px" y="0px" width="19px" height="16px" viewBox="0 0 38.4 32" style="enable-background:new 0 0 38.4 32;"
  xml:space="preserve">
<defs>
</defs>
<g>
  <path class="icon" d="M35.3,12.8H3.1C1.4,12.8,0,14.2,0,16s1.4,3.2,3.1,3.2h32.3c1.7,0,3.1-1.4,3.1-3.2S37,12.8,35.3,12.8z"/>
  <path class="icon" d="M35.3,0H3.1C1.4,0,0,1.4,0,3.2s1.4,3.2,3.1,3.2h32.3c1.7,0,3.1-1.4,3.1-3.2S37,0,35.3,0z"/>
  <path class="icon" d="M35.3,25.6H3.1C1.4,25.6,0,27,0,28.8C0,30.6,1.4,32,3.1,32h32.3c1.7,0,3.1-1.4,3.1-3.2
    C38.4,27,37,25.6,35.3,25.6z"/>
</g>
</svg>
