<svg version="1.1"
   xmlns="http://www.w3.org/2000/svg" xmlns:xlink="http://www.w3.org/1999/xlink" xmlns:a="http://ns.adobe.com/AdobeSVGViewerExtensions/3.0/"
   x="0px" y="0px" width="20px" height="22px" viewBox="0 0 39.4 43.4" style="enable-background:new 0 0 39.4 43.4;"
   xml:space="preserve">
<style type="text/css">
  .st0{fill:#EDAF97;}
</style>
<defs>
</defs>
<g>
  <g>
    <g>
      <g>
        <path class="st0" d="M28.6,36.6H0v-21h28.6V36.6z M3,33.6h22.5v-15H3V33.6z"/>
      </g>
      <g>
        <path class="st0" d="M37.9,36.6H25.5V21.8l0.9-0.4c0.2-0.1,6.1-2.8,10.4,1.5c4.7,4.7,1.6,12.4,1.5,12.8L37.9,36.6z M28.6,33.6
          h7.2c0.5-1.9,1.4-6-1.1-8.5c-2-2-4.7-1.6-6.1-1.2V33.6z"/>
      </g>
      <g>
        <path class="st0" d="M28.7,43.4c-2.9,0-5.3-2.4-5.3-5.3v-4.5H34v4.5C34,41,31.6,43.4,28.7,43.4z M26.4,36.6v1.5
          c0,1.2,1,2.2,2.2,2.2c1.2,0,2.2-1,2.2-2.2v-1.5H26.4z"/>
      </g>
      <g>
        <path class="st0" d="M9.6,43.4c-2.9,0-5.3-2.4-5.3-5.3v-4.6h10.6v4.6C14.9,41,12.5,43.4,9.6,43.4z M7.3,36.6v1.5
          c0,1.2,1,2.2,2.2,2.2c1.2,0,2.2-1,2.2-2.2v-1.5H7.3z"/>
      </g>
    </g>
    <g>
      <path class="st0" d="M14.3,8.9c-0.8,0-1.5-0.7-1.5-1.5V1.5c0-0.8,0.7-1.5,1.5-1.5c0.8,0,1.5,0.7,1.5,1.5v5.9
        C15.8,8.3,15.1,8.9,14.3,8.9z"/>
    </g>
    <g>
      <path class="st0" d="M23,11.2c-0.3,0-0.6-0.1-0.9-0.3c-0.7-0.5-0.8-1.4-0.3-2.1L25.2,4c0.5-0.7,1.4-0.8,2.1-0.3
        c0.7,0.5,0.8,1.4,0.3,2.1l-3.4,4.8C23.9,11,23.5,11.2,23,11.2z"/>
    </g>
    <g>
      <path class="st0" d="M5.4,11.3c-0.5,0-0.9-0.2-1.2-0.6L0.7,5.9C0.2,5.3,0.3,4.3,1,3.8c0.7-0.5,1.6-0.3,2.1,0.3l3.5,4.8
        C7.1,9.6,7,10.5,6.3,11C6,11.2,5.7,11.3,5.4,11.3z"/>
    </g>
  </g>
</g>
</svg>
